<svg width="500" height="500" viewBox="0 0 500 500" fill="none" xmlns="http://www.w3.org/2000/svg">
<path d="M89.572 285.839C89.316 285.494 89.066 285.145 88.808 284.802C85.902 280.941 82.818 277.213 79.564 273.643C79.645 266.449 79.473 239.244 72.183 240.644C65.452 241.937 74.238 263.477 77.986 271.967C76.566 270.456 75.118 268.971 73.635 267.521C68.717 261.138 52.181 240.578 47.334 246.144C42.843 251.301 62.496 262.681 71.133 267.326C72.737 268.856 74.313 270.417 75.844 272.018C67.52 267.861 46.767 258.254 44.922 264.819C42.922 271.937 70.058 273.443 77.431 273.72C81.26 277.851 84.857 282.197 88.218 286.722C80.763 281.999 60.129 269.671 57.59 276.18C54.87 283.154 82.449 287.326 89.351 288.255C92.979 293.261 96.321 298.478 99.385 303.851C92.258 297.811 74.454 283.618 71.109 289.543C67.477 295.975 93.419 303.881 100.546 305.914C101.04 306.807 101.533 307.699 102.012 308.6C104.44 313.172 106.683 317.854 108.746 322.616C102.286 316.285 85.038 300.292 81.226 306.06C77.135 312.25 102.714 322.012 109.544 324.484C112.599 331.743 115.2 339.194 117.313 346.767C111.794 339.582 96.983 321.364 92.403 326.536C87.484 332.091 111.446 345.347 117.864 348.753C117.949 349.073 118.046 349.39 118.129 349.71C118.806 352.306 119.465 354.927 119.925 357.573C120.101 358.586 121.679 358.343 121.503 357.328C121.045 354.698 120.455 352.08 119.785 349.478C123.059 342.894 134.608 318.561 127.471 316.655C120.977 314.92 119.432 337.21 119.068 346.82C117.851 342.488 116.424 338.208 114.932 334.015C113.863 331.012 112.718 328.034 111.506 325.081C113.758 318.322 121.947 292.253 114.562 291.36C107.821 290.545 109.518 313.285 110.502 322.684C108.14 317.139 105.523 311.699 102.644 306.402C104.418 299.504 110.765 272.923 103.335 272.549C96.481 272.204 99.908 295.263 101.527 304.378C98.39 298.774 94.959 293.337 91.226 288.115C92.037 280.614 94.392 254.118 87.082 254.791C80.431 255.399 86.572 276.605 89.572 285.839Z" fill="#EB725F"/>
<path d="M434.429 242.012C434.61 241.623 434.797 241.236 434.975 240.845C436.978 236.447 438.779 231.957 440.361 227.393C446.719 224.027 470.536 210.877 465.823 205.143C461.471 199.847 446.747 217.858 441.08 225.207C441.729 223.237 442.342 221.256 442.907 219.26C446.165 211.89 456.326 187.54 449.12 185.942C442.445 184.461 441.837 207.163 441.884 216.969C441.306 219.11 440.688 221.239 440.013 223.35C439.688 214.051 438.211 191.23 431.563 192.746C424.354 194.39 435.997 218.947 439.277 225.557C437.478 230.895 435.379 236.13 433.009 241.245C433.595 232.439 434.567 208.422 427.635 209.302C420.209 210.245 429.721 236.465 432.202 242.973C429.538 248.552 426.552 253.98 423.296 259.239C425.197 250.092 429.159 227.671 422.355 227.563C414.969 227.445 420.419 254.012 422.039 261.244C421.491 262.104 420.942 262.964 420.38 263.815C417.524 268.133 414.482 272.34 411.285 276.428C413.76 267.729 419.568 244.935 412.68 244.342C405.287 243.705 408.933 270.84 410.025 278.021C405.108 284.173 399.806 290.018 394.162 295.492C397.837 287.211 406.764 265.495 400.033 263.943C392.803 262.276 392.607 289.659 392.681 296.925C392.441 297.153 392.208 297.389 391.967 297.615C390.01 299.45 388.022 301.281 385.918 302.95C385.112 303.589 386.08 304.859 386.887 304.219C388.979 302.56 390.996 300.791 392.962 298.959C400.31 298.689 427.203 297.209 425.468 290.029C423.889 283.495 403.57 292.788 394.954 297.06C398.178 293.921 401.256 290.623 404.227 287.308C406.354 284.935 408.423 282.505 410.438 280.03C417.452 278.779 444.265 273.517 441.521 266.603C439.016 260.292 419.85 272.648 412.064 278.003C415.807 273.279 419.335 268.38 422.613 263.321C429.52 261.584 455.903 254.459 452.683 247.753C449.712 241.567 431.092 255.595 423.859 261.372C427.283 255.938 430.42 250.327 433.224 244.553C440.201 241.682 464.602 231.091 460.518 224.991C456.802 219.438 441.108 234.965 434.429 242.012Z" fill="#EB725F"/>
<path d="M142.609 262.877C142.609 262.877 145.233 257.296 146.572 249.931C146.348 247.621 146.028 245.377 145.603 243.204C145.241 241.304 144.789 239.465 144.295 237.656C142.971 239.922 141.309 242.286 139.453 243.816C139.453 243.816 141.533 239.398 142.936 233.236C141.497 229.068 139.704 225.144 137.6 221.433C136.921 223.668 136.017 225.938 134.826 227.641C134.826 227.641 135.562 223.614 135.568 218.065C135.164 217.433 134.767 216.796 134.345 216.176C131.999 212.757 129.356 209.541 126.413 206.532C126.174 209.066 125.696 211.752 124.774 213.837C124.774 213.837 124.766 209.575 123.731 203.934C120.751 201.199 117.477 198.666 113.86 196.368C113.963 198.812 113.866 201.387 113.299 203.487C113.299 203.487 112.739 199.713 111.148 194.704C107.919 192.837 104.415 191.159 100.607 189.69C101.041 191.714 101.318 193.791 101.219 195.614C101.219 195.614 100.173 192.706 98.126 188.776C95.373 187.82 92.435 186.992 89.3 186.3C86.111 185.595 82.743 185.014 78.811 184.819C77.584 188.56 76.921 191.913 76.437 195.143C75.961 198.318 75.682 201.358 75.589 204.271C78.526 207.59 80.866 209.608 80.866 209.608C79.128 209.048 77.288 208.045 75.554 206.915C75.563 210.996 75.874 214.869 76.462 218.552C80.568 221.832 83.892 223.706 83.892 223.706C81.728 223.483 79.289 222.652 77.044 221.68C77.894 225.88 79.087 229.844 80.574 233.606C85.47 236.592 89.446 238.126 89.446 238.126C87.17 238.24 84.491 237.724 82.039 237.04C83.795 240.865 85.851 244.484 88.203 247.899C88.631 248.515 89.083 249.114 89.529 249.718C94.712 251.699 98.736 252.454 98.736 252.454C96.719 252.957 94.276 252.988 91.946 252.821C94.657 256.114 97.679 259.194 101.055 262.03C107.311 262.927 112.18 262.567 112.18 262.567C110.086 263.753 107.284 264.458 104.694 264.882C106.206 265.992 107.76 267.072 109.405 268.09C111.282 269.264 113.262 270.367 115.339 271.403C122.695 272.79 128.846 272.339 128.846 272.339C127.016 273.375 124.644 274.043 122.347 274.48C123.001 274.73 123.662 274.974 124.333 275.212C127.124 276.191 130.1 277.042 133.283 277.751C136.465 278.461 139.821 279.051 143.737 279.256C144.948 275.526 145.599 272.181 146.075 268.956C146.553 265.73 146.824 262.647 146.91 259.69C146.928 258.978 146.937 258.273 146.938 257.573C145.705 259.565 144.232 261.54 142.609 262.877Z" fill="#6E7FDD"/>
<mask id="mask0_1423_14686" style="mask-type:luminance" maskUnits="userSpaceOnUse" x="75" y="184" width="72" height="96">
<path d="M142.609 262.877C142.609 262.877 145.233 257.296 146.572 249.931C146.348 247.621 146.028 245.377 145.603 243.204C145.241 241.304 144.789 239.465 144.295 237.656C142.971 239.922 141.309 242.286 139.453 243.816C139.453 243.816 141.533 239.398 142.936 233.236C141.497 229.068 139.704 225.144 137.6 221.433C136.921 223.668 136.017 225.938 134.826 227.641C134.826 227.641 135.562 223.614 135.568 218.065C135.164 217.433 134.767 216.796 134.345 216.176C131.999 212.757 129.356 209.541 126.413 206.532C126.174 209.066 125.696 211.752 124.774 213.837C124.774 213.837 124.766 209.575 123.731 203.934C120.751 201.199 117.477 198.666 113.86 196.368C113.963 198.812 113.866 201.387 113.299 203.487C113.299 203.487 112.739 199.713 111.148 194.704C107.919 192.837 104.415 191.159 100.607 189.69C101.041 191.714 101.318 193.791 101.219 195.614C101.219 195.614 100.173 192.706 98.126 188.776C95.373 187.82 92.435 186.992 89.3 186.3C86.111 185.595 82.743 185.014 78.811 184.819C77.584 188.56 76.921 191.913 76.437 195.143C75.961 198.318 75.682 201.358 75.589 204.271C78.526 207.59 80.866 209.608 80.866 209.608C79.128 209.048 77.288 208.045 75.554 206.915C75.563 210.996 75.874 214.869 76.462 218.552C80.568 221.832 83.892 223.706 83.892 223.706C81.728 223.483 79.289 222.652 77.044 221.68C77.894 225.88 79.087 229.844 80.574 233.606C85.47 236.592 89.446 238.126 89.446 238.126C87.17 238.24 84.491 237.724 82.039 237.04C83.795 240.865 85.851 244.484 88.203 247.899C88.631 248.515 89.083 249.114 89.529 249.718C94.712 251.699 98.736 252.454 98.736 252.454C96.719 252.957 94.276 252.988 91.946 252.821C94.657 256.114 97.679 259.194 101.055 262.03C107.311 262.927 112.18 262.567 112.18 262.567C110.086 263.753 107.284 264.458 104.694 264.882C106.206 265.992 107.76 267.072 109.405 268.09C111.282 269.264 113.262 270.367 115.339 271.403C122.695 272.79 128.846 272.339 128.846 272.339C127.016 273.375 124.644 274.043 122.347 274.48C123.001 274.73 123.662 274.974 124.333 275.212C127.124 276.191 130.1 277.042 133.283 277.751C136.465 278.461 139.821 279.051 143.737 279.256C144.948 275.526 145.599 272.181 146.075 268.956C146.553 265.73 146.824 262.647 146.91 259.69C146.928 258.978 146.937 258.273 146.938 257.573C145.705 259.565 144.232 261.54 142.609 262.877Z" fill="white"/>
</mask>
<g mask="url(#mask0_1423_14686)">
<path d="M132.732 208.106L131.708 207.989C131.7 208.169 130.833 225.897 119.021 242.428L110.148 229.522C122.31 212.607 120.792 190.871 120.775 190.652L119.754 190.663C119.77 190.878 121.241 212 109.502 228.583L101.608 217.101C113.722 200.062 102.264 176.032 102.146 175.79L101.236 176.207C101.35 176.443 112.393 199.634 100.959 216.158L92.495 203.847C96.946 186.925 85.398 165.587 85.28 165.372L84.395 165.84C84.508 166.047 95.472 186.323 91.701 202.693L74.266 177.333L73.442 177.899L90.877 203.259C74.243 200.918 59.237 183.421 59.084 183.241L58.33 183.899C58.488 184.086 74.276 202.509 91.67 204.413L100.134 216.724C80.612 221.482 62.913 202.867 62.733 202.677L62.018 203.377C62.202 203.574 80.536 222.876 100.783 217.668L108.677 229.15C89.003 234.169 69.795 225.235 69.601 225.143L69.225 226.093C69.423 226.188 89.175 235.388 109.323 230.089L118.196 242.995C98.546 248.1 81.668 242.566 81.497 242.509L81.24 243.507C81.413 243.565 98.752 249.263 118.841 243.933L125.516 253.642C105.875 258.836 91.313 256.701 91.167 256.679L91.083 257.719C91.232 257.742 106.144 259.938 126.159 254.578L133.439 265.167C116.982 269.498 104.789 267.722 104.666 267.702L104.583 268.743C104.709 268.763 117.251 270.603 134.084 266.105L140.15 274.928C129.816 277.681 122.221 276.67 122.144 276.659L122.072 277.701C122.398 277.747 130.093 278.782 140.793 275.864L152.614 293.057L153.438 292.491L141.617 275.298C148.173 266.353 149.963 258.797 150.036 258.476L149.037 258.17C149.019 258.246 147.244 265.699 140.973 274.362L134.907 265.539C145.134 251.432 147.908 239.063 147.934 238.938L146.933 238.643C146.907 238.765 144.199 250.785 134.262 264.6L126.982 254.011C139.153 237.242 142.443 222.533 142.475 222.385L141.474 222.091C141.442 222.235 138.221 236.596 126.338 253.075L119.663 243.366C131.836 226.518 132.725 208.289 132.732 208.106Z" fill="#B3C9F9"/>
</g>
<path opacity="0.1" d="M135.567 218.067C135.163 217.435 134.766 216.798 134.344 216.178C131.998 212.759 129.355 209.543 126.412 206.534C126.173 209.068 125.695 211.754 124.773 213.839C124.773 213.839 124.765 209.577 123.73 203.936C120.75 201.201 117.476 198.668 113.859 196.37C113.962 198.814 113.865 201.389 113.298 203.489C113.298 203.489 112.738 199.715 111.147 194.706C107.918 192.839 104.414 191.161 100.606 189.692C101.04 191.716 101.317 193.793 101.218 195.616C101.218 195.616 100.172 192.708 98.125 188.778C95.372 187.822 92.434 186.994 89.299 186.302C86.11 185.597 82.742 185.016 78.81 184.821L143.736 279.258C144.947 275.528 145.598 272.183 146.074 268.958C146.552 265.732 146.823 262.649 146.909 259.692C146.927 258.98 146.936 258.275 146.937 257.575C145.706 259.564 144.233 261.539 142.611 262.877C142.611 262.877 145.235 257.296 146.574 249.931C146.35 247.621 146.03 245.377 145.605 243.204C145.243 241.304 144.791 239.465 144.297 237.656C142.973 239.922 141.311 242.286 139.455 243.816C139.455 243.816 141.535 239.398 142.938 233.236C141.499 229.068 139.706 225.144 137.602 221.433C136.923 223.668 136.019 225.938 134.828 227.641C134.825 227.643 135.561 223.615 135.567 218.067Z" fill="#0046A0"/>
<path d="M414.555 350.19C414.555 350.19 420.709 350.586 428.053 349.134C430.121 348.079 432.091 346.959 433.957 345.768C435.593 344.735 437.138 343.641 438.639 342.518C436.045 342.116 433.237 341.436 431.133 340.269C431.133 340.269 436.006 340.586 442.254 339.633C445.604 336.767 448.599 333.661 451.281 330.344C448.953 330.531 446.509 330.522 444.488 330.037C444.488 330.037 448.505 329.246 453.67 327.219C454.11 326.611 454.557 326.009 454.98 325.389C457.302 321.953 459.325 318.316 461.047 314.476C458.601 315.182 455.927 315.721 453.65 315.628C453.65 315.628 457.612 314.059 462.482 311.029C463.936 307.254 465.093 303.279 465.905 299.072C463.669 300.064 461.237 300.916 459.076 301.159C459.076 301.159 462.383 299.256 466.46 295.939C467.015 292.251 467.291 288.375 467.264 284.294C465.54 285.439 463.709 286.458 461.976 287.034C461.976 287.034 464.298 284.996 467.205 281.65C467.086 278.739 466.78 275.701 466.275 272.53C465.762 269.304 465.069 265.957 463.809 262.227C459.879 262.456 456.516 263.068 453.333 263.801C450.204 264.522 447.273 265.376 444.529 266.356C442.517 270.305 441.497 273.221 441.497 273.221C441.382 271.399 441.641 269.319 442.056 267.292C438.262 268.795 434.772 270.504 431.56 272.4C430.013 277.423 429.487 281.201 429.487 281.201C428.902 279.106 428.782 276.532 428.863 274.087C425.267 276.417 422.015 278.979 419.06 281.741C418.075 287.391 418.105 291.652 418.105 291.652C417.165 289.576 416.663 286.894 416.401 284.362C413.485 287.397 410.871 290.636 408.556 294.076C408.139 294.7 407.748 295.34 407.35 295.976C407.405 301.524 408.177 305.545 408.177 305.545C406.97 303.853 406.046 301.591 405.348 299.362C403.277 303.091 401.519 307.031 400.117 311.212C401.574 317.362 403.694 321.761 403.694 321.761C401.824 320.247 400.141 317.899 398.797 315.644C398.319 317.457 397.883 319.299 397.538 321.203C397.133 323.379 396.832 325.626 396.629 327.938C398.034 335.291 400.707 340.848 400.707 340.848C399.073 339.525 397.582 337.563 396.334 335.585C396.341 336.285 396.356 336.99 396.381 337.701C396.493 340.656 396.791 343.737 397.298 346.959C397.803 350.18 398.484 353.519 399.728 357.237C403.642 356.997 406.993 356.377 410.168 355.639C413.345 354.902 416.313 354.024 419.095 353.021C419.764 352.777 420.423 352.527 421.075 352.271C418.772 351.857 416.394 351.21 414.555 350.19Z" fill="#6E7FDD"/>
<mask id="mask1_1423_14686" style="mask-type:luminance" maskUnits="userSpaceOnUse" x="396" y="262" width="72" height="96">
<path d="M414.555 350.19C414.555 350.19 420.709 350.586 428.053 349.134C430.121 348.079 432.091 346.959 433.957 345.768C435.593 344.735 437.138 343.641 438.639 342.518C436.045 342.116 433.237 341.436 431.133 340.269C431.133 340.269 436.006 340.586 442.254 339.633C445.604 336.767 448.599 333.661 451.281 330.344C448.953 330.531 446.509 330.522 444.488 330.037C444.488 330.037 448.505 329.246 453.67 327.219C454.11 326.611 454.557 326.009 454.98 325.389C457.302 321.953 459.325 318.316 461.047 314.476C458.601 315.182 455.927 315.721 453.65 315.628C453.65 315.628 457.612 314.059 462.482 311.029C463.936 307.254 465.093 303.279 465.905 299.072C463.669 300.064 461.237 300.916 459.076 301.159C459.076 301.159 462.383 299.256 466.46 295.939C467.015 292.251 467.291 288.375 467.264 284.294C465.54 285.439 463.709 286.458 461.976 287.034C461.976 287.034 464.298 284.996 467.205 281.65C467.086 278.739 466.78 275.701 466.275 272.53C465.762 269.304 465.069 265.957 463.809 262.227C459.879 262.456 456.516 263.068 453.333 263.801C450.204 264.522 447.273 265.376 444.529 266.356C442.517 270.305 441.497 273.221 441.497 273.221C441.382 271.399 441.641 269.319 442.056 267.292C438.262 268.795 434.772 270.504 431.56 272.4C430.013 277.423 429.487 281.201 429.487 281.201C428.902 279.106 428.782 276.532 428.863 274.087C425.267 276.417 422.015 278.979 419.06 281.741C418.075 287.391 418.105 291.652 418.105 291.652C417.165 289.576 416.663 286.894 416.401 284.362C413.485 287.397 410.871 290.636 408.556 294.076C408.139 294.7 407.748 295.34 407.35 295.976C407.405 301.524 408.177 305.545 408.177 305.545C406.97 303.853 406.046 301.591 405.348 299.362C403.277 303.091 401.519 307.031 400.117 311.212C401.574 317.362 403.694 321.761 403.694 321.761C401.824 320.247 400.141 317.899 398.797 315.644C398.319 317.457 397.883 319.299 397.538 321.203C397.133 323.379 396.832 325.626 396.629 327.938C398.034 335.291 400.707 340.848 400.707 340.848C399.073 339.525 397.582 337.563 396.334 335.585C396.341 336.285 396.356 336.99 396.381 337.701C396.493 340.656 396.791 343.737 397.298 346.959C397.803 350.18 398.484 353.519 399.728 357.237C403.642 356.997 406.993 356.377 410.168 355.639C413.345 354.902 416.313 354.024 419.095 353.021C419.764 352.777 420.423 352.527 421.075 352.271C418.772 351.857 416.394 351.21 414.555 350.19Z" fill="white"/>
</mask>
<g mask="url(#mask1_1423_14686)">
<path d="M461.899 320.933L461.633 319.937C461.463 319.995 444.65 325.684 424.94 320.75L433.698 307.766C453.893 312.885 473.562 303.509 473.759 303.413L473.375 302.467C473.181 302.561 454.066 311.669 434.336 306.822L442.127 295.27C462.42 300.298 480.581 280.834 480.763 280.635L480.041 279.941C479.863 280.133 462.331 298.905 442.767 294.321L451.121 281.935C468.497 279.876 484.12 261.314 484.277 261.125L483.518 260.473C483.367 260.655 468.518 278.285 451.905 280.774L469.114 255.259L468.285 254.7L451.076 280.214C447.16 263.879 457.942 243.506 458.054 243.298L457.165 242.838C457.049 243.054 445.692 264.493 450.293 281.375L441.939 293.761C430.359 277.34 441.195 254.051 441.307 253.814L440.393 253.405C440.277 253.648 429.034 277.779 441.299 294.71L433.508 306.262C421.63 289.794 422.905 268.649 422.919 268.435L421.898 268.433C421.883 268.652 420.559 290.401 432.871 307.207L424.113 320.191C412.163 303.777 411.129 286.045 411.119 285.866L410.096 285.992C410.105 286.175 411.156 304.395 423.476 321.134L416.888 330.902C404.859 314.529 401.511 300.198 401.477 300.054L400.479 300.357C400.512 300.504 403.932 315.184 416.253 331.843L409.068 342.496C399.009 328.77 396.194 316.775 396.167 316.653L395.168 316.957C395.195 317.081 398.079 329.426 408.431 343.441L402.444 352.317C396.096 343.71 394.254 336.273 394.236 336.198L393.24 336.513C393.317 336.833 395.174 344.372 401.809 353.259L390.142 370.557L390.971 371.116L402.638 353.818C413.363 356.641 421.049 355.538 421.375 355.489L421.294 354.448C421.217 354.459 413.631 355.538 403.274 352.877L409.261 344.001C426.134 348.349 438.659 346.397 438.785 346.376L438.692 345.336C438.569 345.357 426.393 347.241 409.898 343.057L417.083 332.404C437.145 337.585 452.037 335.257 452.186 335.232L452.093 334.193C451.947 334.216 437.405 336.481 417.719 331.462L424.307 321.694C444.439 326.845 461.726 320.993 461.899 320.933Z" fill="#B3C9F9"/>
</g>
<path opacity="0.1" d="M453.669 327.22C454.109 326.612 454.556 326.01 454.979 325.39C457.301 321.954 459.324 318.317 461.046 314.477C458.6 315.183 455.926 315.722 453.649 315.629C453.649 315.629 457.611 314.06 462.481 311.03C463.935 307.255 465.092 303.28 465.904 299.073C463.668 300.065 461.236 300.917 459.075 301.16C459.075 301.16 462.382 299.257 466.459 295.94C467.014 292.252 467.29 288.376 467.263 284.295C465.539 285.44 463.708 286.459 461.975 287.035C461.975 287.035 464.297 284.997 467.204 281.651C467.085 278.74 466.779 275.702 466.274 272.531C465.761 269.305 465.068 265.958 463.808 262.228L399.726 357.239C403.64 356.999 406.991 356.379 410.166 355.641C413.343 354.904 416.311 354.026 419.093 353.023C419.762 352.779 420.421 352.529 421.073 352.273C418.771 351.857 416.394 351.21 414.555 350.19C414.555 350.19 420.709 350.586 428.053 349.134C430.121 348.079 432.091 346.959 433.957 345.768C435.593 344.735 437.138 343.641 438.639 342.518C436.045 342.116 433.237 341.436 431.133 340.269C431.133 340.269 436.006 340.586 442.254 339.633C445.604 336.767 448.599 333.661 451.281 330.344C448.953 330.531 446.509 330.522 444.488 330.037C444.488 330.037 448.504 329.247 453.669 327.22Z" fill="#0046A0"/>
<path d="M250 433.676C376.865 433.676 479.709 426.036 479.709 416.612C479.709 407.188 376.865 399.548 250 399.548C123.135 399.548 20.291 407.188 20.291 416.612C20.291 426.036 123.135 433.676 250 433.676Z" fill="#EDF0FC"/>
<path d="M420.413 146.09H128.93V407.573H420.413V146.09Z" fill="#F5F9FF"/>
<path d="M420.413 146.09H128.93V177.012H420.413V146.09Z" fill="#D0DBF7"/>
<path d="M152.447 161.551C152.447 164.831 149.788 167.491 146.507 167.491C143.227 167.491 140.568 164.832 140.568 161.551C140.568 158.27 143.227 155.612 146.507 155.612C149.788 155.611 152.447 158.27 152.447 161.551Z" fill="#EB725F"/>
<path d="M172.447 161.551C172.447 164.831 169.788 167.491 166.507 167.491C163.227 167.491 160.568 164.832 160.568 161.551C160.568 158.27 163.227 155.612 166.507 155.612C169.788 155.611 172.447 158.27 172.447 161.551Z" fill="#F9AB43"/>
<path d="M192.447 161.551C192.447 164.831 189.788 167.491 186.507 167.491C183.226 167.491 180.568 164.832 180.568 161.551C180.568 158.27 183.227 155.612 186.507 155.612C189.787 155.612 192.447 158.27 192.447 161.551Z" fill="#6E7FDD"/>
<path d="M377.701 266.286C379.098 262.744 377.125 259.846 373.318 259.846H233.018C229.211 259.846 224.953 262.744 223.556 266.286L192.457 345.153C191.06 348.695 193.033 351.593 196.84 351.593H337.14C340.947 351.593 345.205 348.695 346.602 345.153L377.701 266.286Z" fill="#FFCF74"/>
<path d="M185.732 338.427L216.831 259.56C218.228 256.018 222.485 253.12 226.293 253.12H336.43V246.131C336.43 242.324 333.315 239.209 329.508 239.209H280.378C276.571 239.209 271.97 236.471 270.153 233.125L263.463 220.802C261.647 217.456 257.045 214.718 253.238 214.718H190.114C186.307 214.718 183.192 217.833 183.192 221.64V337.942C183.192 341.285 185.595 344.093 188.759 344.728C185.862 344.121 184.512 341.52 185.732 338.427Z" fill="#FFCF74"/>
<path d="M287.669 281.671C273.223 281.671 261.511 293.382 261.511 307.829C261.511 322.276 273.222 333.987 287.669 333.987C302.116 333.987 313.827 322.276 313.827 307.829C313.826 293.383 302.115 281.671 287.669 281.671ZM300.468 316.858L296.699 320.627L287.669 311.598L278.639 320.627L274.87 316.858L283.9 307.829L274.87 298.8L278.639 295.031L287.669 304.061L296.699 295.031L300.468 298.8L291.438 307.829L300.468 316.858Z" fill="#EB725F"/>
<path d="M124.671 420.91C166.563 420.91 200.523 415.361 200.523 408.516C200.523 401.671 166.563 396.122 124.671 396.122C82.7791 396.122 48.819 401.671 48.819 408.516C48.819 415.361 82.7791 420.91 124.671 420.91Z" fill="#EB725F"/>
<path d="M145.993 252.836H124.672H103.35L70.6121 405.802C97.7661 411.654 124.672 411.654 124.672 411.654C124.672 411.654 151.577 411.654 178.731 405.802L145.993 252.836Z" fill="#FFCF74"/>
<path d="M124.671 256.081C136.446 256.081 145.992 254.628 145.992 252.836C145.992 251.044 136.446 249.591 124.671 249.591C112.896 249.591 103.35 251.044 103.35 252.836C103.35 254.628 112.896 256.081 124.671 256.081Z" fill="#EB725F"/>
<mask id="mask2_1423_14686" style="mask-type:luminance" maskUnits="userSpaceOnUse" x="70" y="252" width="109" height="160">
<path d="M145.993 252.836H124.672H103.35L70.6121 405.802C97.7661 411.654 124.672 411.654 124.672 411.654C124.672 411.654 151.577 411.654 178.731 405.802L145.993 252.836Z" fill="white"/>
</mask>
<g mask="url(#mask2_1423_14686)">
<path d="M123.743 399.076C79.853 399.076 50.214 391.74 48.373 391.273L54.479 367.226L51.426 379.249L54.466 367.222C55.095 367.38 118.354 382.883 195.552 367.095L200.524 391.403C172.412 397.152 146.208 399.076 123.743 399.076Z" fill="#F9AB43"/>
<path d="M123.743 345.097C79.853 345.097 50.214 337.761 48.373 337.294L54.479 313.247L51.426 325.27L54.466 313.243C55.095 313.401 118.354 328.904 195.552 313.116L200.524 337.424C172.412 343.173 146.208 345.097 123.743 345.097Z" fill="#F9AB43"/>
<path d="M123.743 291.118C79.853 291.118 50.214 283.782 48.373 283.315L54.479 259.268L51.426 271.291L54.466 259.264C55.095 259.422 118.354 274.925 195.552 259.137L200.524 283.445C172.412 289.194 146.208 291.118 123.743 291.118Z" fill="#F9AB43"/>
</g>
<path opacity="0.1" d="M151.323 326.641C151.323 359.902 144.438 389.946 133.364 411.405C143.474 410.941 161.046 409.613 178.731 405.802L145.993 252.836H138.355C146.467 273.052 151.323 298.711 151.323 326.641Z" fill="#0046A0"/>
<g opacity="0.3">
<path d="M105.666 276.437C104.887 280.196 104.108 283.954 103.328 287.713C101.456 296.742 99.584 305.771 97.712 314.799C95.436 325.775 93.161 336.752 90.885 347.728C88.927 357.173 86.969 366.619 85.01 376.064C84.062 380.637 82.892 385.223 82.155 389.836C82.145 389.901 82.128 389.965 82.115 390.03C81.331 393.811 87.223 394.883 88.005 391.114C88.784 387.356 89.564 383.597 90.343 379.838C92.215 370.809 94.087 361.781 95.959 352.752C98.235 341.776 100.51 330.799 102.786 319.823C104.744 310.378 106.703 300.932 108.661 291.487C109.609 286.914 110.779 282.328 111.516 277.715C111.526 277.65 111.543 277.585 111.556 277.521C112.339 273.74 106.447 272.668 105.666 276.437Z" fill="white"/>
</g>
<path d="M404.666 366.512L263.272 406.874L265.751 415.559L407.146 375.197L404.666 366.512Z" fill="#6E7FDD"/>
<path d="M404.666 366.511L340.187 384.917L342.666 393.602L407.146 375.196L404.666 366.511Z" fill="#EB725F"/>
<path d="M409.749 415.919C434.657 413.802 453.132 391.894 451.014 366.986C448.897 342.079 426.989 323.604 402.082 325.721C377.174 327.838 358.699 349.746 360.816 374.654C362.934 399.561 384.842 418.036 409.749 415.919Z" fill="#EB725F"/>
<path d="M439.214 385.663C447.408 367.283 439.151 345.741 420.771 337.548C402.392 329.354 380.85 337.611 372.657 355.991C364.463 374.37 372.72 395.912 391.099 404.105C409.479 412.299 431.021 404.042 439.214 385.663Z" fill="#D0DBF7"/>
<path d="M433.294 363.018L428.952 364.258C425.324 351.551 412.035 344.165 399.328 347.793L398.088 343.451C413.189 339.139 428.983 347.918 433.294 363.018Z" fill="white"/>
<path d="M372.173 144.442L328.851 131.308L302.802 217.232L370.117 237.64L389.096 175.035L372.173 144.442Z" fill="#E2E6FF"/>
<path d="M367.796 178.405L364.701 172.615L350.831 180.031L343.414 166.162L337.625 169.258L345.042 183.127L331.172 190.543L334.267 196.333L348.137 188.916L355.554 202.786L361.344 199.69L353.927 185.821L367.796 178.405Z" fill="#CAD2F9"/>
<path d="M257.214 85.6079L213.231 96.3219L234.481 183.557L302.823 166.909L287.34 103.35L257.214 85.6079Z" fill="#E2E6FF"/>
<path d="M270.711 117.079L265.102 113.668L256.928 127.105L243.49 118.932L240.079 124.541L253.517 132.714L245.343 146.152L250.952 149.563L259.126 136.126L272.564 144.299L275.975 138.69L262.537 130.517L270.711 117.079Z" fill="#CAD2F9"/>
<path d="M411.337 93.463H400.156V82.282H396.177V93.463H384.997V97.442H396.177V108.622H400.156V97.442H411.337V93.463Z" fill="#E2E6FF"/>
<path d="M436.378 131.933H430.288V125.843H428.12V131.933H422.031V134.1H428.12V140.19H430.288V134.1H436.378V131.933Z" fill="#E2E6FF"/>
<path d="M369.171 121.307H361.796V113.933H359.171V121.307H351.797V123.932H359.171V131.307H361.796V123.932H369.171V121.307Z" fill="#E2E6FF"/>
<path d="M89.962 120.157H78.781V108.977H74.802V120.157H63.622V124.137H74.802V135.317H78.781V124.137H89.962V120.157Z" fill="#E2E6FF"/>
<path d="M138.763 113.484H132.673V107.394H130.505V113.484H124.415V115.651H130.505V121.741H132.673V115.651H138.763V113.484Z" fill="#E2E6FF"/>
<path d="M101.685 163.147H94.31V155.772H91.685V163.147H84.311V165.771H91.685V173.146H94.31V165.771H101.685V163.147Z" fill="#E2E6FF"/>
<path d="M346.53 74.956C346.53 76.295 345.445 77.38 344.106 77.38C342.767 77.38 341.682 76.295 341.682 74.956C341.682 73.618 342.767 72.532 344.106 72.532C345.445 72.532 346.53 73.617 346.53 74.956Z" fill="#CAD2F9"/>
<path d="M455.982 162.103C455.982 164.638 453.927 166.693 451.392 166.693C448.857 166.693 446.802 164.638 446.802 162.103C446.802 159.568 448.857 157.513 451.392 157.513C453.927 157.513 455.982 159.568 455.982 162.103Z" fill="#CAD2F9"/>
<path d="M310.693 100.233C310.693 101.572 309.608 102.657 308.269 102.657C306.93 102.657 305.845 101.572 305.845 100.233C305.845 98.894 306.93 97.809 308.269 97.809C309.608 97.809 310.693 98.894 310.693 100.233Z" fill="#CAD2F9"/>
<path d="M172.659 74.956C172.659 77.491 170.604 79.546 168.069 79.546C165.534 79.546 163.479 77.491 163.479 74.956C163.479 72.421 165.534 70.366 168.069 70.366C170.604 70.366 172.659 72.421 172.659 74.956Z" fill="#CAD2F9"/>
<path d="M190.493 123.619C190.493 124.958 189.408 126.043 188.069 126.043C186.73 126.043 185.645 124.958 185.645 123.619C185.645 122.28 186.73 121.195 188.069 121.195C189.408 121.196 190.493 122.281 190.493 123.619Z" fill="#CAD2F9"/>
<path d="M48.865 170.557C48.865 171.896 47.78 172.981 46.441 172.981C45.102 172.981 44.017 171.896 44.017 170.557C44.017 169.218 45.102 168.133 46.441 168.133C47.78 168.133 48.865 169.218 48.865 170.557Z" fill="#CAD2F9"/>
</svg>
