<svg width="1650" height="986" viewBox="0 0 1650 986" fill="none" xmlns="http://www.w3.org/2000/svg">
<path d="M237.31 46.265V703.232C237.31 728.501 257.795 748.986 283.064 748.986H1366.94C1392.2 748.986 1412.69 728.501 1412.69 703.232V46.265C1412.69 20.996 1392.2 0.510986 1366.94 0.510986H283.064C257.795 0.510986 237.31 20.996 237.31 46.265Z" fill="#155BCD"/>
<path d="M1337.29 75.907H312.709V635.646H1337.29V75.907Z" fill="#84A9FF"/>
<path d="M278.432 41.636V669.917H1371.56V41.636H278.432ZM1337.29 635.646H312.71V75.907H1337.29L1337.29 635.646Z" fill="#84A9FF"/>
<path d="M955.539 748.986H694.461V881.117H955.539V748.986Z" fill="#E5E6EB"/>
<path d="M1234.66 965.489H415.342L454.079 877.933H1195.92L1234.66 965.489Z" fill="#155BCD"/>
<path d="M1354.1 748.999H994.702C992.845 748.999 991.34 750.504 991.34 752.361V955.404C991.34 960.965 995.864 965.489 1001.42 965.489C1006.99 965.489 1011.51 960.965 1011.51 955.404V836.922H1337.29V955.404C1337.29 960.965 1341.81 965.489 1347.38 965.489C1352.94 965.489 1357.46 960.965 1357.46 955.404V752.361C1357.46 750.504 1355.95 748.999 1354.1 748.999ZM1011.51 816.752V769.169H1337.29V816.752H1011.51Z" fill="#050F64"/>
<path d="M1500.24 374.748H848.559V557.965H1500.24V374.748Z" fill="#DCAB28"/>
<path d="M952.918 557.965H848.559V374.748H864.514L952.918 557.965Z" fill="#050F64"/>
<path d="M1166.54 557.965H1057.04L968.631 374.748H1078.14L1166.54 557.965Z" fill="#050F64"/>
<path d="M1380.17 557.965H1270.66L1182.26 374.748H1291.76L1380.17 557.965Z" fill="#050F64"/>
<path d="M1500.24 374.748V557.965H1484.29L1395.88 374.748H1500.24Z" fill="#050F64"/>
<path d="M1500.24 596.673H848.559V779.89H1500.24V596.673Z" fill="#DCAB28"/>
<path d="M952.918 779.89H848.559V596.673H864.514L952.918 779.89Z" fill="#050F64"/>
<path d="M1166.54 779.89H1057.04L968.631 596.673H1078.14L1166.54 779.89Z" fill="#050F64"/>
<path d="M1380.17 779.89H1270.66L1182.26 596.673H1291.76L1380.17 779.89Z" fill="#050F64"/>
<path d="M1500.24 596.673V779.89H1484.29L1395.88 596.673H1500.24Z" fill="#050F64"/>
<path d="M1403.87 723.559V431.08L944.926 431.08V723.559H1403.87Z" fill="#FFCA32"/>
<path d="M1047.25 572.348C1047.25 579.707 1050.49 582.356 1055.64 582.356C1060.79 582.356 1064.03 579.707 1064.03 572.348V492.874H1079.33V571.318C1079.33 587.802 1071.09 597.221 1055.2 597.221C1039.3 597.221 1031.06 587.802 1031.06 571.318V492.874H1047.25V572.348Z" fill="#050F64"/>
<path d="M1104.79 595.896H1090.22V492.874H1110.53L1127.16 554.54V492.874H1141.58V595.896H1124.95L1104.79 521.278V595.896Z" fill="#050F64"/>
<path d="M1178.81 492.873C1195 492.873 1202.95 501.85 1202.95 518.334V570.434C1202.95 586.918 1195 595.896 1178.81 595.896H1153.21V492.874L1178.81 492.873ZM1169.4 581.178H1178.52C1183.67 581.178 1186.76 578.529 1186.76 571.17V517.599C1186.76 510.24 1183.67 507.592 1178.52 507.592H1169.4V581.178Z" fill="#050F64"/>
<path d="M1251.66 536.29V551.008H1229.44V581.178H1257.4V595.896H1213.25V492.874H1257.4V507.592H1229.44V536.291L1251.66 536.29Z" fill="#050F64"/>
<path d="M1299.78 583.238V567.049C1299.78 557.483 1296.55 553.95 1289.19 553.95H1283.59V595.895H1267.41V492.873H1291.84C1308.61 492.873 1315.83 500.673 1315.83 516.568V524.663C1315.83 535.26 1312.44 542.177 1305.23 545.562C1313.32 548.947 1315.97 556.748 1315.97 567.492V583.387C1315.97 588.391 1316.12 592.07 1317.74 595.897H1301.26C1300.37 593.246 1299.78 591.627 1299.78 583.238ZM1283.59 539.234H1289.92C1295.96 539.234 1299.64 536.585 1299.64 528.343V518.188C1299.64 510.829 1297.13 507.592 1291.4 507.592H1283.6L1283.59 539.234Z" fill="#050F64"/>
<path d="M1050.93 650.821C1050.93 658.117 1047.28 662.286 1040.25 662.286C1033.21 662.286 1029.56 658.117 1029.56 650.821V627.108C1029.56 619.812 1033.21 615.643 1040.25 615.643C1047.28 615.643 1050.93 619.812 1050.93 627.108V631.538H1044.16V626.652C1044.16 623.395 1042.72 622.157 1040.44 622.157C1038.16 622.157 1036.73 623.395 1036.73 626.652V651.277C1036.73 654.534 1038.16 655.707 1040.44 655.707C1042.72 655.707 1044.16 654.534 1044.16 651.277V644.762H1050.93V650.821Z" fill="#050F64"/>
<path d="M1065.59 615.643C1072.62 615.643 1076.47 619.812 1076.47 627.108V650.821C1076.47 658.117 1072.62 662.286 1065.59 662.286C1058.55 662.286 1054.71 658.117 1054.71 650.821V627.108C1054.71 619.812 1058.55 615.643 1065.59 615.643ZM1065.59 655.772C1067.87 655.772 1069.3 654.534 1069.3 651.277V626.652C1069.3 623.395 1067.87 622.157 1065.59 622.157C1063.31 622.157 1061.87 623.395 1061.87 626.652V651.277C1061.87 654.534 1063.31 655.772 1065.59 655.772Z" fill="#050F64"/>
<path d="M1087.47 661.765H1081.02V616.164H1090.01L1097.37 643.459V616.164H1103.76V661.765H1096.4L1087.47 628.737V661.765Z" fill="#050F64"/>
<path d="M1118.54 615.643C1125.51 615.643 1129.1 619.812 1129.1 627.108V628.541H1122.32V626.652C1122.32 623.395 1121.02 622.157 1118.74 622.157C1116.46 622.157 1115.16 623.395 1115.16 626.652C1115.16 636.033 1129.16 637.792 1129.16 650.821C1129.16 658.117 1125.51 662.286 1118.48 662.286C1111.44 662.286 1107.79 658.117 1107.79 650.821V648.02H1114.57V651.277C1114.57 654.534 1116 655.707 1118.28 655.707C1120.56 655.707 1121.99 654.534 1121.99 651.277C1121.99 641.896 1107.99 640.137 1107.99 627.108C1107.99 619.812 1111.57 615.643 1118.54 615.643Z" fill="#050F64"/>
<path d="M1153.33 616.164V622.678H1145.84V661.765H1138.67V622.678H1131.18V616.164H1153.33Z" fill="#050F64"/>
<path d="M1170.79 656.162V648.996C1170.79 644.762 1169.35 643.198 1166.1 643.198H1163.62V661.764H1156.45V616.163H1167.27C1174.7 616.163 1177.89 619.616 1177.89 626.651V630.234C1177.89 634.925 1176.39 637.986 1173.2 639.484C1176.78 640.982 1177.95 644.435 1177.95 649.191V656.226C1177.95 658.441 1178.02 660.07 1178.73 661.763H1171.44C1171.05 660.592 1170.79 659.875 1170.79 656.162ZM1163.62 636.684H1166.42C1169.09 636.684 1170.72 635.511 1170.72 631.863V627.368C1170.72 624.111 1169.61 622.677 1167.07 622.677H1163.62V636.684Z" fill="#050F64"/>
<path d="M1189.48 651.342C1189.48 654.599 1190.91 655.772 1193.19 655.772C1195.47 655.772 1196.91 654.599 1196.91 651.342V616.164H1203.68V650.886C1203.68 658.182 1200.03 662.351 1193 662.351C1185.96 662.351 1182.31 658.182 1182.31 650.886V616.164H1189.48L1189.48 651.342Z" fill="#050F64"/>
<path d="M1229.35 650.821C1229.35 658.117 1225.7 662.286 1218.66 662.286C1211.63 662.286 1207.98 658.117 1207.98 650.821V627.108C1207.98 619.812 1211.63 615.643 1218.66 615.643C1225.7 615.643 1229.35 619.812 1229.35 627.108V631.538H1222.57V626.652C1222.57 623.395 1221.14 622.157 1218.86 622.157C1216.58 622.157 1215.14 623.395 1215.14 626.652V651.277C1215.14 654.534 1216.58 655.707 1218.86 655.707C1221.14 655.707 1222.57 654.534 1222.57 651.277V644.762H1229.35V650.821Z" fill="#050F64"/>
<path d="M1253.77 616.164V622.678H1246.28V661.765H1239.12V622.678H1231.62V616.164H1253.77Z" fill="#050F64"/>
<path d="M1264.06 616.164V661.765H1256.9V616.164H1264.06Z" fill="#050F64"/>
<path d="M1279.57 615.643C1286.6 615.643 1290.45 619.812 1290.45 627.108V650.821C1290.45 658.117 1286.6 662.286 1279.57 662.286C1272.53 662.286 1268.69 658.117 1268.69 650.821V627.108C1268.69 619.812 1272.53 615.643 1279.57 615.643ZM1279.57 655.772C1281.85 655.772 1283.28 654.534 1283.28 651.277V626.652C1283.28 623.395 1281.85 622.157 1279.57 622.157C1277.29 622.157 1275.85 623.395 1275.85 626.652V651.277C1275.85 654.534 1277.29 655.772 1279.57 655.772Z" fill="#050F64"/>
<path d="M1301.45 661.765H1295V616.164H1303.99L1311.35 643.459V616.164H1317.74V661.765H1310.38L1301.45 628.737L1301.45 661.765Z" fill="#050F64"/>
<path d="M1380.34 700.027H968.459V454.611H1380.34V700.027ZM975.182 693.304H1373.62V461.334H975.182V693.304Z" fill="#050F64"/>
<path d="M637.242 920.462L404.796 918.885L431.397 837.455L445.897 793.042L471.291 715.324L485.79 670.912L512.391 589.481L534.142 589.629L559.636 671.413L573.532 716.018L597.853 794.073L611.748 838.678L637.242 920.462Z" fill="#FFCA32"/>
<path d="M573.532 716.018L471.291 715.324L485.79 670.912L559.636 671.413L573.532 716.018Z" fill="#050F64"/>
<path d="M611.748 838.678L431.397 837.455L445.897 793.042L597.853 794.073L611.748 838.678Z" fill="#050F64"/>
<path d="M692.581 918.469H348.223V965.489H692.581V918.469Z" fill="#DCAB28"/>
<path d="M254.455 965.486L308.89 965.489C308.849 963.625 308.485 961.834 307.36 960.387C306.07 958.715 303.976 957.841 301.904 957.483C299.824 957.125 297.692 957.22 295.586 957.117C290.422 956.863 285.32 955.386 280.818 952.838C278.466 951.519 276.265 949.894 273.726 948.969L258.89 949.358C256.86 951.546 255.555 954.413 254.926 957.357C254.352 960.022 254.289 962.761 254.455 965.486Z" fill="#050F64"/>
<path d="M254.722 933.317L258.889 949.357L273.726 948.969L272.853 931.73L254.722 933.317Z" fill="#F5BDC8"/>
<path d="M277.844 796.117C278.109 785.769 277.187 775.428 275.092 765.29C267.872 730.343 254.886 663.033 254.884 663.023C252.871 648.521 240.816 644.276 226.314 646.288C217.884 647.458 138.718 663.846 138.787 664.592L156.043 932.86L178.062 932.104L201.661 720.773L237.862 787.147L237.887 787.227L253.213 933.432L274.366 931.984L277.844 796.117Z" fill="#050F64"/>
<path d="M155.182 965.486H209.617C209.576 963.622 209.212 961.831 208.087 960.384C206.797 958.712 204.703 957.838 202.631 957.48C200.55 957.122 198.418 957.218 196.313 957.114C191.149 956.861 186.047 955.384 181.545 952.836C179.193 951.517 176.992 949.892 174.453 948.967L159.617 949.356C157.587 951.544 156.282 954.411 155.653 957.356C155.079 960.022 155.016 962.761 155.182 965.486Z" fill="#050F64"/>
<path d="M157.843 932.798L159.616 949.357L174.452 948.968L176.753 932.149L157.843 932.798Z" fill="#F5BDC8"/>
<path d="M392.493 387.792C389.712 386.964 386.878 387.823 385.633 390.047C381.863 396.688 376.973 402.947 371.748 408.794C366.455 414.625 360.706 420.067 354.663 425.168C353.127 426.422 351.65 427.723 350.076 428.933L345.39 432.58L340.59 436.089C339.004 437.268 337.326 438.349 335.703 439.482L333.253 441.162L330.746 442.774C329.07 443.841 327.417 444.929 325.73 445.976C322.304 448.006 318.959 450.118 315.456 452.021C287.749 467.659 257.853 479.361 227.247 488.606C226.045 489.007 224.919 489.534 223.875 490.168C222.826 490.793 221.844 491.498 220.958 492.311C219.182 493.93 217.756 495.918 216.736 498.139C214.701 502.58 214.277 507.955 216.071 513.116C217.865 518.277 221.552 522.167 226.087 524.232C228.353 525.266 230.827 525.844 233.36 525.905C234.625 525.932 235.91 525.846 237.181 525.593C238.449 525.329 239.712 524.928 240.948 524.382C271.859 510.143 301.847 493.349 329.099 472.546C332.534 470.005 335.829 467.234 339.167 464.565C340.815 463.195 342.433 461.779 344.063 460.39L346.498 458.295L348.88 456.126C350.457 454.666 352.072 453.269 353.608 451.761L358.232 447.28L362.727 442.658C364.229 441.128 365.644 439.493 367.101 437.918C372.846 431.517 378.239 424.776 383.108 417.637C387.924 410.444 392.296 402.958 395.582 394.693C396.721 391.885 395.297 388.626 392.493 387.792Z" fill="#EA8096"/>
<path d="M297.941 504.654L252.279 526.041C238.467 532.51 222.082 527.702 215.613 513.89C209.144 500.078 215.04 482.493 228.852 476.024L274.514 454.637L297.941 504.654Z" fill="white"/>
<path d="M214.737 514.298C215.11 515.092 215.521 515.875 215.962 516.623C220.584 524.461 228.686 529.1 237.505 529.758L237.527 528.798C228.31 528.1 219.842 522.916 215.615 513.887C212.477 507.19 212.25 499.605 214.422 492.829L213.543 492.412C211.179 499.67 211.613 507.615 214.737 514.298ZM238.304 471.597L261.422 460.77L260.929 459.935L237.952 470.696L238.304 471.597ZM274.515 454.639L287.216 481.76L288.079 481.324L274.977 453.352L270.597 455.403L270.943 456.313L274.515 454.639ZM266.368 520.505L292.773 508.137L292.396 507.25L265.878 519.673L266.368 520.505Z" fill="#84A9FF"/>
<path d="M198.728 472.192C228.455 469.55 254.082 492.901 254.206 522.746L254.885 663.023C207.409 686.039 180.611 678.35 138.788 664.592L141.782 532.795C142.621 501.064 167.111 475.002 198.728 472.192Z" fill="white"/>
<path d="M255.17 522.743C255.054 494.223 231.788 471.025 203.316 471.025C201.767 471.025 200.194 471.093 198.641 471.233C197.879 471.301 197.126 471.383 196.373 471.479C196.31 471.807 196.243 472.14 196.17 472.478C197.014 472.362 197.868 472.271 198.727 472.193C200.271 472.058 201.801 471.99 203.316 471.99C231.045 471.99 254.084 494.45 254.204 522.743L254.45 573.955H255.415L255.17 522.743ZM190.685 677.343L190.753 678.313C193.518 678.54 196.287 678.656 199.076 678.656C205.271 678.656 211.5 678.072 217.884 676.876L217.556 675.964C208.161 677.715 199.379 678.053 190.685 677.343ZM140.815 532.774L140.091 564.739H141.056L141.78 532.793C142.209 516.523 148.858 501.745 159.502 490.826C159.266 490.594 159.034 490.373 158.812 490.146C148.004 501.234 141.254 516.244 140.815 532.774ZM139.459 635.067L138.499 634.932L137.809 665.286L138.484 665.508C143.647 667.206 148.549 668.799 153.263 670.236C153.263 669.903 153.268 669.575 153.278 669.242C148.627 667.809 143.816 666.246 138.789 664.591L139.459 635.067ZM255.604 613.051H254.644L254.885 663.023C251.672 664.582 248.55 666 245.515 667.279L245.751 668.23C248.873 666.913 252.052 665.47 255.304 663.892L255.849 663.627L255.604 613.051Z" fill="#84A9FF"/>
<path d="M207.622 450.542L212.041 486.539C204.846 492.577 197.028 493.537 188.586 489.418L184.167 453.421L207.622 450.542Z" fill="#F5BDC8"/>
<path d="M207.622 450.542L209.621 466.824C208.054 467.664 206.34 468.29 204.517 468.673C203.932 468.793 203.345 468.889 202.754 468.961C196.298 469.753 189.868 467.506 185.353 463.081L184.167 453.42L207.622 450.542Z" fill="#EA8096"/>
<path d="M215.581 427.217L217.371 448.443C218.086 456.924 212.361 464.604 204.03 466.342C196.459 467.921 188.642 464.741 184.451 458.24C181.676 453.937 179.023 448.879 176.419 443.52C172.257 434.957 172.968 424.678 178.66 417.045C183.512 410.54 190.285 407.874 199.123 409.33C208.053 410.802 214.82 418.2 215.581 427.217Z" fill="#F5BDC8"/>
<path d="M199.75 714.324C201.876 712.349 202.576 709.472 201.292 707.27C197.486 700.649 194.58 693.258 192.197 685.786C189.863 678.264 188.096 670.548 186.772 662.751C186.472 660.791 186.102 658.858 185.859 656.887L185.098 650.998L184.514 645.081C184.304 643.116 184.225 641.121 184.073 639.148L183.871 636.184L183.755 633.206C183.687 631.22 183.59 629.243 183.545 627.259C183.537 623.276 183.417 619.323 183.557 615.338C184.161 583.528 189.269 551.832 196.853 520.773C197.118 519.534 197.237 518.297 197.221 517.075C197.216 515.854 197.108 514.65 196.857 513.473C196.365 511.121 195.377 508.882 193.982 506.876C191.191 502.867 186.776 499.771 181.419 498.695C176.062 497.619 170.839 498.818 166.756 501.675C164.715 503.102 162.959 504.939 161.62 507.089C160.954 508.165 160.376 509.315 159.948 510.539C159.531 511.765 159.236 513.057 159.078 514.399C155.641 548.258 154.873 582.619 158.948 616.661C159.392 620.911 160.104 625.157 160.708 629.387C161.051 631.503 161.449 633.615 161.817 635.725L162.385 638.887L163.043 642.041C163.499 644.141 163.883 646.242 164.401 648.331L165.912 654.59L167.61 660.809C168.165 662.88 168.854 664.93 169.471 666.985C172.066 675.185 175.133 683.255 178.809 691.075C182.558 698.877 186.786 706.446 192.235 713.475C194.077 715.887 197.607 716.317 199.75 714.324Z" fill="#F5BDC8"/>
<path d="M147.12 573.517L151.894 523.321C153.338 508.138 165.803 496.467 180.986 497.911C196.169 499.355 208.321 513.367 206.877 528.55L202.103 578.746L147.12 573.517Z" fill="white"/>
<path d="M181.079 496.948C180.206 496.866 179.323 496.823 178.454 496.823C169.354 496.823 161.243 501.445 156.197 508.707L157.012 509.214C162.295 501.629 171.062 496.968 180.987 497.914C188.35 498.614 194.999 502.271 199.732 507.583L200.538 507.038C195.487 501.315 188.423 497.653 181.079 496.948ZM205.889 538.94L203.472 564.353H204.442L206.845 539.094L205.889 538.94ZM202.102 578.745L172.289 575.908L172.226 576.873L202.975 579.797L203.433 574.982L202.473 574.818L202.102 578.745ZM149.505 538.269L146.745 567.296L147.7 567.421L150.47 538.269H149.505Z" fill="#84A9FF"/>
<path d="M209.607 416.629C209.607 416.629 214.761 422.964 216.316 435.93C216.316 435.93 216.948 422.553 212.919 412.775L209.607 416.629Z" fill="#050F64"/>
<path d="M168.892 444.658C168.892 444.658 154.678 429.744 164.2 414.689C174.463 398.464 183.11 398.473 192.553 399.335C204.496 400.425 211.333 403.309 215.528 401.603C217.77 400.691 219.481 398.353 220.095 399.615C220.708 400.877 222.705 408.618 217.165 415.634C211.624 422.65 202.898 423.284 193.709 420.397C184.52 417.511 180.642 418.761 178.035 424.581C175.269 430.756 182.156 439.895 182.156 439.895L179.735 441.292C179.735 441.292 168.935 437.31 168.892 444.658Z" fill="#050F64"/>
<path d="M185.151 440.53C185.681 444.849 182.177 448.833 177.323 449.429C172.47 450.025 168.106 447.006 167.575 442.687C167.045 438.368 170.549 434.383 175.403 433.788C180.257 433.193 184.621 436.211 185.151 440.53Z" fill="#F5BDC8"/>
<mask id="mask0_1423_14781" style="mask-type:luminance" maskUnits="userSpaceOnUse" x="278" y="156" width="1094" height="145">
<path d="M1371.56 156.258H278.432V300.258H1371.56V156.258Z" fill="white"/>
</mask>
<g mask="url(#mask0_1423_14781)">
<path d="M1573.81 185.837H39.356V264.807H1573.81V185.837Z" fill="#FFCA32"/>
<path d="M379.996 264.807H302.576L284.006 185.837H361.426L379.996 264.807Z" fill="#050F64"/>
<path d="M567.356 264.807H489.936L471.366 185.837H548.776L567.356 264.807Z" fill="#050F64"/>
<path d="M754.706 264.807H677.286L658.716 185.837H736.136L754.706 264.807Z" fill="#050F64"/>
<path d="M942.066 264.807H864.646L846.066 185.837H923.486L942.066 264.807Z" fill="#050F64"/>
<path d="M1129.42 264.807H1052L1033.43 185.837H1110.85L1129.42 264.807Z" fill="#050F64"/>
<path d="M1316.78 264.807H1239.36L1220.78 185.837H1298.2L1316.78 264.807Z" fill="#050F64"/>
</g>
<path d="M642.34 960.653C641.396 959.429 639.862 958.789 638.345 958.527C636.822 958.265 635.26 958.335 633.718 958.259C629.936 958.074 626.201 956.992 622.904 955.126C621.182 954.16 619.57 952.97 617.71 952.293L606.846 952.578C605.36 954.18 604.404 956.279 603.943 958.436C603.524 960.388 603.477 962.393 603.599 964.389V966.654H643.451V964.389H643.46C643.431 963.025 643.164 961.713 642.34 960.653Z" fill="#050F64"/>
<path d="M605.482 940.513L606.846 952.578L617.711 952.293L618.44 941.135L605.482 940.513Z" fill="#F5BDC8"/>
<path d="M748.461 956.337C747.385 955.227 745.789 954.764 744.252 954.673C742.709 954.584 741.165 954.829 739.625 954.927C735.846 955.168 732.013 954.513 728.527 953.03C726.707 952.264 724.972 951.263 723.048 950.799L712.285 952.304C710.988 954.063 710.274 956.256 710.059 958.451C709.862 960.438 710.041 962.436 710.387 964.405L710.642 966.656L750.241 962.177L749.986 959.926L749.995 959.925C749.812 958.571 749.399 957.297 748.461 956.337Z" fill="#050F64"/>
<path d="M595.936 765.302C593.652 723.264 594.048 663.705 605.43 630.158C605.533 629.549 693.535 637.45 693.538 637.462L714.078 721.95C721.31 751.677 724.837 782.185 724.581 812.778L723.517 939.564L708.666 940.526L681.158 772.622C670.902 752.699 659.94 729.747 651.457 707.378L619.439 941.182L604.574 940.469C604.574 940.469 595.936 765.435 595.94 765.302H595.936Z" fill="#050F64"/>
<path d="M709.573 940.468L712.285 952.303L723.048 950.798L722.519 939.629L709.573 940.468Z" fill="#F5BDC8"/>
<path d="M804.701 668.906C806.359 666.515 805.963 663.296 803.801 661.562C791.072 651.165 778.831 640.29 767.348 628.808C755.865 617.329 745.135 605.251 735.418 592.556C725.722 579.846 717.043 566.528 709.55 552.706C705.827 545.78 702.401 538.732 699.272 531.582C698.511 529.784 697.703 528.013 696.981 526.201L694.808 520.781C693.447 517.132 692.064 513.507 690.85 509.818C690.43 508.661 689.867 507.594 689.233 506.592C688.608 505.587 687.876 504.664 687.051 503.826C685.397 502.154 683.378 500.82 681.191 499.846C676.781 497.921 671.404 497.513 666.244 499.309C661.084 501.105 657.21 504.82 655.203 509.487C654.179 511.823 653.692 514.362 653.737 516.967C653.758 518.27 653.91 519.588 654.2 520.901C654.499 522.21 654.975 523.497 655.574 524.761C657.52 528.718 659.637 532.59 661.732 536.457L665.005 542.186C666.093 544.094 667.267 545.955 668.394 547.836C672.984 555.319 677.863 562.593 683.01 569.633C693.351 583.685 704.758 596.782 716.954 608.881C729.171 620.965 742.171 632.047 755.67 642.261C769.171 652.477 783.175 661.82 797.459 670.528C799.87 672.008 803.042 671.297 804.701 668.906Z" fill="#EA8096"/>
<path d="M673.951 570.66L655.003 531.283C649.272 519.372 653.29 505.13 665.201 499.398C677.112 493.667 692.404 498.617 698.136 510.528L717.084 549.905L673.951 570.66Z" fill="#155BCD"/>
<path d="M645.782 488.117C679.036 487.771 704.81 517.088 700.206 550.024L693.537 637.462C656.633 650.84 629.159 643.525 605.429 630.158L601.435 537.114C599.099 510.974 619.539 488.389 645.782 488.117Z" fill="#155BCD"/>
<path d="M601.106 524.547L602.047 524.634C603.263 518.255 605.839 512.331 609.473 507.187L608.812 506.454C604.961 511.872 602.336 518.063 601.106 524.547ZM621.67 637.933L621.366 638.85C629.501 642.03 637.491 644.037 645.597 644.939V643.964C637.095 642.99 629.167 640.862 621.67 637.933ZM626.721 492.558C632.477 489.779 638.933 488.187 645.784 488.114C672.263 487.839 693.995 506.372 699.427 530.564L700.353 530.371C698.365 521.512 694.206 513.18 688.107 506.169C677.589 494.083 662.376 487.149 646.362 487.149H645.773C639.062 487.221 632.5 488.775 626.536 491.607L626.721 492.558ZM693.537 637.46C685.045 640.538 677.05 642.521 669.485 643.588V644.548C677.417 643.443 685.576 641.373 693.865 638.367L694.454 638.155L695.313 626.908C695.004 626.744 694.691 626.58 694.382 626.411L693.537 637.46ZM700.181 550.332L696.818 594.413H697.788L701.151 550.332H700.181Z" fill="#84A9FF"/>
<path d="M637.638 427.401C637.638 427.401 614.654 432.751 620.378 458.294C624.2 475.352 636.563 483.999 654.453 486.92L637.638 427.401Z" fill="#050F64"/>
<path d="M661.628 470.371L659.872 496.724C652.388 501.043 645.153 500.661 638.164 495.58L639.92 469.227L661.628 470.371Z" fill="#F5BDC8"/>
<path d="M661.471 473.389L661.036 481.652C657.669 483.425 653.846 484.415 649.836 484.394C649.61 484.389 649.383 484.385 649.158 484.373C645.398 484.175 641.852 482.541 639.363 479.867L639.765 472.245L661.471 473.389Z" fill="#EA8096"/>
<path d="M672.282 439.479L670.797 458.857L670.464 463.157C669.538 473.885 660.536 482.106 649.766 482.054C648.697 482.049 647.602 481.892 646.538 481.579C646.133 481.457 645.728 481.32 645.327 481.153C645.244 481.123 645.161 481.085 645.077 481.048C643.569 480.389 642.183 479.398 641.057 478.095C638.62 475.261 637.088 472.203 635.694 469.04C634.478 466.28 633.388 463.554 632.632 460.787C631.733 457.497 631.312 454.141 631.717 450.575L633.182 433.579L666.304 431.077L672.282 439.479Z" fill="#F5BDC8"/>
<path d="M638.176 434.511C638.176 434.511 676.072 436.863 668.605 470.123C668.605 470.123 680.528 446.025 668.393 429.886C655.027 412.11 637.197 417.95 630.862 426.441C624.527 434.932 619.778 449.029 637.428 459.107C637.428 459.107 631.49 446.498 638.176 434.511Z" fill="#050F64"/>
<path d="M638.972 454.813C638.742 459.175 635.02 462.525 630.658 462.295C626.296 462.065 622.946 458.343 623.176 453.981C623.406 449.619 627.128 446.269 631.49 446.499C635.852 446.728 639.202 450.451 638.972 454.813Z" fill="#F5BDC8"/>
<path d="M716.535 707.188C718.824 705.393 719.396 702.2 717.841 699.905C708.745 686.216 700.257 672.214 692.67 657.856C685.083 643.501 678.393 628.795 672.853 613.799C667.337 598.794 662.973 583.509 659.89 568.092C658.375 560.376 657.18 552.63 656.3 544.876C656.103 542.933 655.853 541.003 655.698 539.059L655.22 533.239C654.996 529.352 654.744 525.479 654.672 521.596C654.612 520.367 654.388 519.18 654.079 518.037C653.779 516.892 653.351 515.794 652.81 514.751C651.723 512.665 650.187 510.796 648.385 509.219C644.74 506.079 639.722 504.103 634.262 504.297C628.802 504.491 624.004 506.899 620.711 510.766C619.043 512.696 617.829 514.979 617.104 517.481C616.739 518.732 616.496 520.037 616.386 521.376C616.286 522.715 616.361 524.085 616.56 525.47C617.253 529.825 618.134 534.149 618.994 538.462L620.432 544.902C620.909 547.046 621.482 549.171 622.004 551.301C624.183 559.805 626.699 568.194 629.54 576.44C635.277 592.917 642.313 608.796 650.397 623.954C658.507 639.105 667.66 653.528 677.545 667.268C687.432 681.012 698.058 694.07 709.137 706.604C711.005 708.727 714.246 708.983 716.535 707.188Z" fill="#F5BDC8"/>
<path d="M619.763 574.478L613.273 531.264C611.31 518.193 619.35 505.769 632.422 503.806C645.493 501.843 658.646 511.084 660.609 524.155L667.099 567.369L619.763 574.478Z" fill="#155BCD"/>
<path d="M612.698 521.402L613.585 521.804C615.61 512.67 622.596 505.282 632.422 503.805C640.012 502.667 647.629 505.304 653.069 510.278L653.812 509.641C653.009 508.904 652.151 508.208 651.241 507.556C645.698 503.589 638.784 501.873 632.281 502.852C629.598 503.255 627.057 504.09 624.72 505.336C618.554 508.623 614.275 514.546 612.698 521.402ZM614.297 544.575L615.263 544.53L613.313 531.539L612.26 530.969C612.279 531.118 612.296 531.262 612.319 531.408L614.297 544.575ZM616.878 561.784L617.861 561.812L616.032 549.643L615.02 549.395L616.878 561.784ZM618.951 575.578L656.297 569.97L656.071 569.024L619.763 574.477L618.79 567.986L617.807 567.958L618.951 575.578ZM661.464 529.86L666.227 561.582L667.171 561.352L662.445 529.884L661.464 529.86Z" fill="#84A9FF"/>
<path d="M1650 965.489H0V985.489H1650V965.489Z" fill="#E5E6EB"/>
</svg>
