<svg enable-background="new 0 0 226.8 226.8" height="226.8" viewBox="0 0 226.8 226.8" width="226.8" xmlns="http://www.w3.org/2000/svg"><g id="Layer_1"/><g id="Layer_1_1_"/><g id="Layer_1_2_"/><g id="Layer_1_3_"/><g id="Layer_1_4_"/><g id="Layer_1_5_"/><g id="Layer_1_6_"/><g id="Layer_1_7_"/><g id="Layer_1_8_"/><g id="Layer_1_9_"/><g id="Layer_1_10_"/><g id="Layer_1_11_"/><g id="Layer_1_12_"/><g id="Layer_1_13_"/><g id="Layer_1_14_"/><g id="Layer_1_15_"/><g id="Layer_1_16_"/><g id="Layer_1_17_"/><g id="Layer_1_18_"><g clip-rule="evenodd" fill-rule="evenodd"><path d="m116.2 136.6h-27.5c-34.8 0-63.2-28.3-63.2-63.2 0-34.8 28.3-63.2 63.2-63.2h79.8c12.8 0 23.3 10.4 23.3 23.3 0 12.8-10.4 23.3-23.3 23.3h-79.8c-9.2 0-16.6 7.5-16.6 16.7s7.5 16.7 16.6 16.7h27.6c12.8 0 23.3 10.4 23.3 23.3-.1 12.7-10.5 23.1-23.4 23.1z" fill="#ed1c24"/><path d="m138.1 216.5h-79.8c-12.8 0-23.3-10.4-23.3-23.3 0-12.8 10.4-23.3 23.3-23.3h79.8c9.2 0 16.6-7.5 16.6-16.6 0-9-7.6-16.7-16.6-16.7h-27.5c-12.8 0-23.3-10.4-23.3-23.3 0-12.8 10.4-23.3 23.3-23.3h27.5c34.8 0 63.2 28.3 63.2 63.2s-28.4 63.3-63.2 63.3z" fill="#3958a8"/><path d="m167.2 203.8c-5.7 0-11.4-2.1-15.9-6.3-9.4-8.8-9.8-23.5-1-32.9 2.9-3.1 4.5-7.2 4.5-11.4 0-9-7.6-16.7-16.6-16.7h-27.5c-12.8 0-23.3-10.4-23.3-23.3 0-12.8 10.4-23.3 23.3-23.3h27.5c34.8 0 63.2 28.3 63.2 63.2 0 16.1-6.1 31.4-17.1 43.2-4.7 5.1-10.9 7.5-17.1 7.5z" fill="#fcaf17"/></g></g><g id="Layer_1_19_"/><g id="Layer_1_20_"/><g id="Layer_1_21_"/><g id="Layer_1_22_"/><g id="Layer_1_23_"/><g id="Layer_1_24_"/><g id="Layer_1_25_"/><g id="Layer_1_26_"/><g id="Layer_1_27_"/><g id="Layer_1_28_"/><g id="Layer_1_29_"/><g id="Layer_1_30_"/><g id="Layer_1_31_"/><g id="Layer_1_32_"/><g id="Layer_1_33_"/><g id="Layer_1_34_"/><g id="Layer_1_35_"/></svg>