<svg id="Layer_1" height="512" viewBox="0 0 100 100" width="512" xmlns="http://www.w3.org/2000/svg"><path d="m16.667 68.332c0 8.271 6.729 15 15 15s15-6.729 15-15v-15h-15c-8.271 0-15 6.731-15 15z" fill="#f1f7e9"/><path d="m16.667 25c0 4.594 3.736 8.333 8.333 8.333 4.598 0 8.333-3.739 8.333-8.333s-3.735-8.333-8.333-8.333c-4.597 0-8.333 3.739-8.333 8.333z" fill="#fff8e1"/><path d="m25 10c-8.271 0-15 6.729-15 15s6.729 15 15 15 15-6.729 15-15-6.729-15-15-15zm0 23.333c-4.597 0-8.333-3.739-8.333-8.333s3.736-8.333 8.333-8.333c4.598 0 8.333 3.739 8.333 8.333s-3.735 8.333-8.333 8.333z" fill="#ffc00e"/><path d="m66.667 75c0 4.598 3.734 8.332 8.333 8.332 4.597 0 8.333-3.734 8.333-8.332s-3.736-8.334-8.333-8.334c-4.599 0-8.333 3.736-8.333 8.334z" fill="#fff8e1"/><path d="m75 60c-8.271 0-15 6.729-15 15s6.729 15 15 15 15-6.729 15-15-6.729-15-15-15zm0 23.332c-4.599 0-8.333-3.734-8.333-8.332s3.734-8.334 8.333-8.334c4.597 0 8.333 3.736 8.333 8.334s-3.736 8.332-8.333 8.332z" fill="#ffc00e"/><path d="m53.333 46.667h15c8.271 0 15-6.729 15-15s-6.729-15-15-15-15 6.729-15 15z" fill="#f1f7e9"/><path d="m83.185 33.667c-.983-7.326-7.261-13-14.852-13-6.065 0-11 4.935-11 11v15h-4v-15c0-8.271 6.729-15 15-15s15 6.729 15 15c0 .679-.062 1.343-.148 2z" fill="#dbebc7"/><path d="m16.816 66.332c.983 7.326 7.26 13 14.851 13 6.065 0 11-4.936 11-11v-15h4v15c0 8.271-6.729 15-15 15s-15-6.729-15-15c0-.68.062-1.344.149-2z" fill="#dbebc7"/><path d="m68.333 10c-11.947 0-21.666 9.72-21.666 21.667v15h-15c-11.947 0-21.667 9.72-21.667 21.665 0 11.947 9.72 21.668 21.667 21.668 11.946 0 21.666-9.721 21.666-21.666v-15h15c11.946 0 21.667-9.72 21.667-21.667s-9.721-21.667-21.667-21.667zm-21.666 58.332c0 8.271-6.729 15-15 15s-15-6.729-15-15c0-8.27 6.729-15 15-15h15zm21.666-21.665h-15v-15c0-8.271 6.729-15 15-15s15 6.729 15 15-6.729 15-15 15z" fill="#7cb342"/><path d="m19.495 27.828c0-4.597 3.739-8.333 8.333-8.333 1.573 0 3.041.446 4.298 1.208-1.461-2.415-4.104-4.036-7.126-4.036-4.595 0-8.333 3.736-8.333 8.333 0 3.023 1.622 5.666 4.035 7.126-.761-1.257-1.207-2.725-1.207-4.298z" fill="#ffebb2"/><path d="m69.495 77.828c0-4.598 3.739-8.334 8.333-8.334 1.573 0 3.041.447 4.299 1.207-1.462-2.414-4.105-4.035-7.127-4.035-4.595 0-8.333 3.736-8.333 8.332 0 3.023 1.622 5.666 4.034 7.127-.76-1.256-1.206-2.723-1.206-4.297z" fill="#ffebb2"/><g fill="#568b3f"><path d="m53.334 46.667h4v6.667h-4z"/><path d="m42.667 46.667h4v6.667h-4z"/></g></svg>